<?xml version="1.0" encoding="utf-8"?>
<!-- Generator: Adobe Illustrator 19.2.1, SVG Export Plug-In . SVG Version: 6.00 Build 0)  -->
<svg version="1.1" id="Layer_1" xmlns="http://www.w3.org/2000/svg" xmlns:xlink="http://www.w3.org/1999/xlink" x="0px" y="0px"
	 viewBox="0 0 376.2 200" style="enable-background:new 0 0 376.2 200;" xml:space="preserve">
<style type="text/css">
	.st0{fill:#B3AD98;}
	.st1{fill:#2A2A2A;}
</style>
<g>
	<path class="st0" d="M249.4,50.4c-0.8,1.1-2.2,2.1-4,3s-4.1,1.3-6.8,1.3c-3.5,0-6.3-1.1-8.5-3.2s-3.3-5-3.3-8.4v-5.9
		c0-3.4,1.1-6.2,3.2-8.4s4.8-3.3,8.2-3.3c3.5,0,6.1,0.8,8,2.5s2.8,3.9,2.8,6.7l0,0.1h-5.4c-0.1-1.5-0.6-2.7-1.4-3.6
		c-0.9-0.9-2.1-1.3-3.8-1.3c-1.7,0-3.2,0.7-4.2,2c-1.1,1.3-1.6,3.1-1.6,5.2v6c0,2.2,0.6,3.9,1.7,5.3s2.6,2,4.5,2
		c1.3,0,2.4-0.1,3.2-0.4s1.4-0.6,1.8-1v-5.3h-5v-3.9h10.7V50.4z"/>
	<path class="st0" d="M263.2,54.7c-3,0-5.5-1-7.3-2.9s-2.7-4.4-2.7-7.4v-0.8c0-3.1,0.9-5.7,2.6-7.8s4-3,6.9-3c2.9,0,5.1,0.9,6.6,2.6
		s2.4,4,2.4,7v3.1h-12.6l0,0.1c0.1,1.4,0.6,2.5,1.4,3.4c0.8,0.9,2,1.3,3.4,1.3c1.3,0,2.3-0.1,3.1-0.4s1.7-0.7,2.7-1.2l1.5,3.5
		c-0.9,0.7-2,1.3-3.4,1.8C266.5,54.5,264.9,54.7,263.2,54.7z M262.7,37.2c-1.1,0-1.9,0.4-2.5,1.2s-1,1.9-1.1,3.2l0.1,0.1h7v-0.5
		c0-1.2-0.3-2.2-0.8-2.9S263.9,37.2,262.7,37.2z"/>
	<path class="st0" d="M286.1,38.1l-2.1-0.1c-0.8,0-1.5,0.2-2.1,0.5s-1,0.8-1.2,1.5v14.3H275V33.2h5.3l0.3,3.1c0.5-1.1,1.1-2,1.9-2.6
		s1.7-0.9,2.7-0.9c0.3,0,0.5,0,0.8,0.1s0.5,0.1,0.7,0.2L286.1,38.1z"/>
	<path class="st0" d="M294.3,33.2l0.2,2.8c0.7-1,1.5-1.8,2.5-2.4s2.2-0.8,3.5-0.8c1.4,0,2.5,0.3,3.5,0.9s1.7,1.5,2.2,2.7
		c0.7-1.1,1.5-2,2.5-2.7s2.3-1,3.7-1c2.1,0,3.7,0.7,4.9,2.2s1.8,3.6,1.8,6.6v12.8h-5.7V41.4c0-1.6-0.3-2.7-0.8-3.3
		c-0.5-0.6-1.3-0.9-2.3-0.9c-0.8,0-1.5,0.2-2.1,0.5c-0.6,0.4-1.1,0.9-1.4,1.5c0,0.2,0,0.5,0,0.6c0,0.2,0,0.4,0,0.5v13.9h-5.7V41.4
		c0-1.6-0.3-2.7-0.8-3.3c-0.5-0.6-1.3-1-2.3-1c-0.8,0-1.4,0.1-2,0.4s-1.1,0.7-1.4,1.2v15.4H289V33.2H294.3z"/>
	<path class="st0" d="M336,54.3c-0.2-0.5-0.4-1-0.5-1.5s-0.3-1.1-0.3-1.6c-0.6,1-1.4,1.9-2.3,2.6s-2.1,1-3.4,1
		c-2.2,0-3.9-0.6-5.1-1.7s-1.8-2.7-1.8-4.7c0-2.1,0.8-3.7,2.4-4.8s3.9-1.7,7-1.7h3.2v-1.7c0-1-0.3-1.8-0.8-2.4s-1.3-0.8-2.4-0.8
		c-0.9,0-1.6,0.2-2.1,0.7s-0.8,1.1-0.8,1.9l-5.5,0l0-0.1c-0.1-1.8,0.7-3.3,2.3-4.6s3.8-1.9,6.5-1.9c2.5,0,4.6,0.6,6.2,1.9
		s2.4,3.1,2.4,5.5v8.7c0,1,0.1,1.9,0.2,2.8s0.4,1.7,0.7,2.6H336z M330.8,50.5c1,0,1.9-0.2,2.7-0.7s1.3-1.1,1.6-1.7v-3h-3.2
		c-1.2,0-2.1,0.3-2.8,0.9s-0.9,1.3-0.9,2.2c0,0.7,0.2,1.3,0.7,1.7S330,50.5,330.8,50.5z"/>
	<path class="st0" d="M350.3,33.2l0.3,3c0.7-1.1,1.6-1.9,2.6-2.5s2.2-0.9,3.5-0.9c2.1,0,3.8,0.7,5,2s1.8,3.4,1.8,6.3v13.2h-5.7V41.1
		c0-1.4-0.3-2.4-0.9-3s-1.4-0.9-2.6-0.9c-0.8,0-1.4,0.2-2,0.5s-1.1,0.7-1.5,1.3v15.4H345V33.2H350.3z"/>
	<path class="st0" d="M242.9,86.9c0-1.1-0.4-2-1.2-2.6s-2.1-1.3-4.1-1.9c-3.4-1-5.9-2.1-7.7-3.5s-2.6-3.2-2.6-5.5s1-4.2,3-5.7
		s4.5-2.2,7.6-2.2c3.1,0,5.7,0.8,7.6,2.5s2.9,3.7,2.9,6.1l0,0.1h-5.5c0-1.3-0.4-2.4-1.3-3.2s-2.1-1.2-3.7-1.2c-1.5,0-2.7,0.3-3.5,1
		s-1.2,1.5-1.2,2.6c0,1,0.4,1.8,1.3,2.4s2.4,1.3,4.6,2c3.1,0.9,5.5,2,7.1,3.5s2.4,3.3,2.4,5.6c0,2.4-1,4.4-2.9,5.8s-4.5,2.1-7.6,2.1
		c-3.1,0-5.8-0.8-8.1-2.4s-3.4-3.8-3.4-6.7l0-0.1h5.5c0,1.7,0.5,2.9,1.6,3.7s2.5,1.2,4.3,1.2c1.5,0,2.7-0.3,3.6-1
		S242.9,87.9,242.9,86.9z"/>
	<path class="st0" d="M261.4,90.3c1,0,1.8-0.3,2.4-0.9c0.6-0.6,0.9-1.4,0.9-2.4h5.2l0.1,0.1c0.1,2.1-0.8,3.9-2.4,5.4
		s-3.7,2.2-6.2,2.2c-3.2,0-5.6-1-7.3-3s-2.6-4.6-2.6-7.7v-0.6c0-3.1,0.8-5.7,2.5-7.7s4.1-3,7.3-3c2.6,0,4.7,0.7,6.3,2.2
		s2.4,3.4,2.3,5.9l0,0.1h-5.2c0-1.1-0.3-2-0.9-2.7s-1.4-1.1-2.5-1.1c-1.5,0-2.6,0.6-3.2,1.8s-0.9,2.7-0.9,4.5V84
		c0,1.9,0.3,3.4,0.9,4.6C258.8,89.7,259.8,90.3,261.4,90.3z"/>
	<path class="st0" d="M284.3,78.1l-2.1-0.1c-0.8,0-1.5,0.2-2.1,0.5s-1,0.8-1.2,1.5v14.3h-5.7V73.2h5.3l0.3,3.1
		c0.5-1.1,1.1-2,1.9-2.6s1.7-0.9,2.7-0.9c0.3,0,0.5,0,0.8,0.1s0.5,0.1,0.7,0.2L284.3,78.1z"/>
	<path class="st0" d="M296.6,94.7c-3,0-5.5-1-7.3-2.9s-2.7-4.4-2.7-7.4v-0.8c0-3.1,0.9-5.7,2.6-7.8s4-3,6.9-3c2.9,0,5.1,0.9,6.6,2.6
		s2.4,4,2.4,7v3.1h-12.6l0,0.1c0.1,1.4,0.6,2.5,1.4,3.4c0.8,0.9,2,1.3,3.4,1.3c1.3,0,2.3-0.1,3.1-0.4s1.7-0.7,2.7-1.2l1.5,3.5
		c-0.9,0.7-2,1.3-3.4,1.8C299.8,94.5,298.3,94.7,296.6,94.7z M296,77.2c-1.1,0-1.9,0.4-2.5,1.2s-1,1.9-1.1,3.2l0.1,0.1h7v-0.5
		c0-1.2-0.3-2.2-0.8-2.9S297.2,77.2,296,77.2z"/>
	<path class="st0" d="M317.7,94.7c-3,0-5.5-1-7.3-2.9s-2.7-4.4-2.7-7.4v-0.8c0-3.1,0.9-5.7,2.6-7.8s4-3,6.9-3c2.9,0,5.1,0.9,6.6,2.6
		s2.4,4,2.4,7v3.1h-12.6l0,0.1c0.1,1.4,0.6,2.5,1.4,3.4c0.8,0.9,2,1.3,3.4,1.3c1.3,0,2.3-0.1,3.1-0.4s1.7-0.7,2.7-1.2l1.5,3.5
		c-0.9,0.7-2,1.3-3.4,1.8C321,94.5,319.4,94.7,317.7,94.7z M317.2,77.2c-1.1,0-1.9,0.4-2.5,1.2s-1,1.9-1.1,3.2l0.1,0.1h7v-0.5
		c0-1.2-0.3-2.2-0.8-2.9S318.4,77.2,317.2,77.2z"/>
	<path class="st0" d="M334.8,73.2l0.3,3c0.7-1.1,1.6-1.9,2.6-2.5s2.2-0.9,3.5-0.9c2.1,0,3.8,0.7,5,2s1.8,3.4,1.8,6.3v13.2h-5.7V81.1
		c0-1.4-0.3-2.4-0.9-3s-1.4-0.9-2.6-0.9c-0.8,0-1.4,0.2-2,0.5s-1.1,0.7-1.5,1.3v15.4h-5.7V73.2H334.8z"/>
	<path class="st0" d="M242.9,126.9c0-1.1-0.4-2-1.2-2.6s-2.1-1.3-4.1-1.9c-3.4-1-5.9-2.1-7.7-3.5s-2.6-3.2-2.6-5.5s1-4.2,3-5.7
		s4.5-2.2,7.6-2.2c3.1,0,5.7,0.8,7.6,2.5s2.9,3.7,2.9,6.1l0,0.1h-5.5c0-1.3-0.4-2.4-1.3-3.2s-2.1-1.2-3.7-1.2c-1.5,0-2.7,0.3-3.5,1
		s-1.2,1.5-1.2,2.6c0,1,0.4,1.8,1.3,2.4s2.4,1.3,4.6,2c3.1,0.9,5.5,2,7.1,3.5s2.4,3.3,2.4,5.6c0,2.4-1,4.4-2.9,5.8s-4.5,2.1-7.6,2.1
		c-3.1,0-5.8-0.8-8.1-2.4s-3.4-3.8-3.4-6.7l0-0.1h5.5c0,1.7,0.5,2.9,1.6,3.7s2.5,1.2,4.3,1.2c1.5,0,2.7-0.3,3.6-1
		S242.9,127.9,242.9,126.9z"/>
	<path class="st0" d="M259.3,108v5.2h3.6v4h-3.6v10.8c0,0.8,0.2,1.4,0.5,1.8s0.8,0.5,1.4,0.5c0.3,0,0.6,0,0.8,0s0.5-0.1,0.8-0.2
		l0.5,4.1c-0.6,0.2-1.1,0.3-1.7,0.4s-1.1,0.1-1.8,0.1c-2,0-3.5-0.5-4.5-1.6s-1.6-2.8-1.6-5.1v-10.8h-3.1v-4h3.1V108H259.3z"/>
	<path class="st0" d="M279.4,131.2c-0.7,1.1-1.5,2-2.5,2.6s-2.2,0.9-3.5,0.9c-2.2,0-4-0.7-5.2-2.1s-1.9-3.6-1.9-6.7v-12.8h5.7V126
		c0,1.5,0.3,2.6,0.8,3.3c0.5,0.7,1.3,1,2.3,1c0.9,0,1.7-0.1,2.3-0.4c0.7-0.3,1.2-0.7,1.6-1.3v-15.4h5.7v21.1h-4.9L279.4,131.2z"/>
	<path class="st0" d="M288.2,123.9c0-3.3,0.7-6,2.2-8.1s3.5-3.1,6.1-3.1c1.1,0,2,0.2,2.9,0.7s1.6,1.1,2.2,2v-11.6h5.7v30.5h-4.9
		l-0.5-2.6c-0.7,1-1.4,1.7-2.4,2.2s-1.9,0.8-3.1,0.8c-2.6,0-4.6-1-6-2.9s-2.2-4.4-2.2-7.5V123.9z M293.8,124.3
		c0,1.9,0.3,3.3,0.9,4.4c0.6,1.1,1.6,1.6,3,1.6c0.8,0,1.5-0.2,2.1-0.5s1.1-0.8,1.5-1.5v-9.1c-0.4-0.7-0.9-1.2-1.5-1.6
		c-0.6-0.4-1.3-0.6-2.1-0.6c-1.4,0-2.4,0.6-3.1,1.9c-0.6,1.2-1,2.9-1,4.9V124.3z"/>
	<path class="st0" d="M317.6,108.1h-5.7v-4.3h5.7V108.1z M317.6,134.3h-5.7v-21.1h5.7V134.3z"/>
	<path class="st0" d="M331.7,134.7c-3,0-5.5-1-7.3-2.9s-2.7-4.4-2.7-7.4v-0.8c0-3.1,0.9-5.7,2.6-7.8s4-3,6.9-3
		c2.9,0,5.1,0.9,6.6,2.6s2.4,4,2.4,7v3.1h-12.6l0,0.1c0.1,1.4,0.6,2.5,1.4,3.4c0.8,0.9,2,1.3,3.4,1.3c1.3,0,2.3-0.1,3.1-0.4
		s1.7-0.7,2.7-1.2l1.5,3.5c-0.9,0.7-2,1.3-3.4,1.8C334.9,134.5,333.4,134.7,331.7,134.7z M331.1,117.2c-1.1,0-1.9,0.4-2.5,1.2
		s-1,1.9-1.1,3.2l0.1,0.1h7v-0.5c0-1.2-0.3-2.2-0.8-2.9S332.3,117.2,331.1,117.2z"/>
	<path class="st0" d="M354.9,128.5c0-0.6-0.3-1.2-0.9-1.6s-1.7-0.9-3.4-1.2c-2.5-0.5-4.4-1.3-5.7-2.3s-1.9-2.4-1.9-4.1
		c0-1.8,0.8-3.4,2.3-4.6s3.6-1.9,6.1-1.9c2.7,0,4.8,0.6,6.4,1.9s2.4,2.9,2.3,4.8l0,0.1h-5.5c0-0.8-0.3-1.5-0.8-2.1s-1.3-0.8-2.4-0.8
		c-0.9,0-1.7,0.2-2.2,0.7s-0.8,1-0.8,1.7c0,0.7,0.3,1.2,0.8,1.6s1.7,0.8,3.4,1.1c2.6,0.5,4.5,1.3,5.8,2.3s1.9,2.4,1.9,4.2
		c0,1.9-0.8,3.5-2.4,4.7s-3.8,1.8-6.4,1.8c-2.8,0-5-0.7-6.7-2.1s-2.4-3-2.3-4.9l0-0.1h5.2c0,1.1,0.4,2,1.1,2.5s1.6,0.8,2.8,0.8
		c1.1,0,1.9-0.2,2.4-0.6S354.9,129.2,354.9,128.5z"/>
	<path class="st0" d="M250.6,174.3h-5.7l-11.5-19.4l-0.1,0v19.4h-5.7v-28.4h5.7l11.5,19.4l0.1,0v-19.4h5.7V174.3z"/>
	<path class="st0" d="M264.8,174.7c-3,0-5.5-1-7.3-2.9s-2.7-4.4-2.7-7.4v-0.8c0-3.1,0.9-5.7,2.6-7.8s4-3,6.9-3
		c2.9,0,5.1,0.9,6.6,2.6s2.4,4,2.4,7v3.1h-12.6l0,0.1c0.1,1.4,0.6,2.5,1.4,3.4c0.8,0.9,2,1.3,3.4,1.3c1.3,0,2.3-0.1,3.1-0.4
		s1.7-0.7,2.7-1.2l1.5,3.5c-0.9,0.7-2,1.3-3.4,1.8C268.1,174.5,266.5,174.7,264.8,174.7z M264.3,157.2c-1.1,0-1.9,0.4-2.5,1.2
		s-1,1.9-1.1,3.2l0.1,0.1h7v-0.5c0-1.2-0.3-2.2-0.8-2.9S265.4,157.2,264.3,157.2z"/>
	<path class="st0" d="M283.4,148v5.2h3.6v4h-3.6v10.8c0,0.8,0.2,1.4,0.5,1.8s0.8,0.5,1.4,0.5c0.3,0,0.6,0,0.8,0s0.5-0.1,0.8-0.2
		l0.5,4.1c-0.6,0.2-1.1,0.3-1.7,0.4s-1.1,0.1-1.8,0.1c-2,0-3.5-0.5-4.5-1.6s-1.6-2.8-1.6-5.1v-10.8h-3.1v-4h3.1V148H283.4z"/>
	<path class="st0" d="M309,166.7h0.1l2.8-13.6h5.4l-5.4,21.1H307l-3.9-12.6H303l-3.9,12.6h-4.7l-5.4-21.1h5.4l2.8,13.5h0.1l3.9-13.5
		h3.8L309,166.7z"/>
	<path class="st0" d="M319.1,163.5c0-3.2,0.9-5.7,2.6-7.7s4.2-3,7.3-3c3.1,0,5.6,1,7.3,3s2.7,4.6,2.7,7.8v0.4c0,3.2-0.9,5.8-2.6,7.8
		s-4.2,3-7.3,3c-3.1,0-5.6-1-7.3-3s-2.6-4.6-2.6-7.8V163.5z M324.8,163.9c0,1.9,0.3,3.5,1,4.6c0.7,1.2,1.8,1.7,3.3,1.7
		c1.5,0,2.5-0.6,3.2-1.8c0.7-1.2,1-2.7,1-4.6v-0.4c0-1.9-0.3-3.4-1-4.6c-0.7-1.2-1.8-1.8-3.3-1.8c-1.5,0-2.5,0.6-3.2,1.8
		s-1,2.7-1,4.6V163.9z"/>
	<path class="st0" d="M353.7,158.1l-2.1-0.1c-0.8,0-1.5,0.2-2.1,0.5s-1,0.8-1.2,1.5v14.3h-5.7v-21.1h5.3l0.3,3.1
		c0.5-1.1,1.1-2,1.9-2.6s1.7-0.9,2.7-0.9c0.3,0,0.5,0,0.8,0.1s0.5,0.1,0.7,0.2L353.7,158.1z"/>
	<path class="st0" d="M363.9,165.4h-1.6v8.8h-5.7v-30.5h5.7v17.3h1.4l4.9-7.9h6.6l-6.8,9.6l7.8,11.6h-6.5L363.9,165.4z"/>
</g>
<polygon class="st0" points="0,0 0,71.6 28.3,99.9 0,128.2 0,200 200,200 200,0 "/>
<g>
	<g>
		<path class="st1" d="M88.8,81.2c-1.9,2.5-4.8,4.7-8.8,6.6c-4,1.9-9,2.9-15.1,2.9c-7.7,0-14.1-2.4-18.9-7.2
			c-4.9-4.8-7.3-11.1-7.3-18.7V51.6c0-7.6,2.4-13.9,7.1-18.7c4.7-4.8,10.8-7.2,18.2-7.2c7.7,0,13.6,1.9,17.7,5.6
			c4.1,3.8,6.2,8.7,6.3,14.8l-0.1,0.3h-12c-0.2-3.4-1.3-6-3.2-8c-1.9-2-4.7-2.9-8.4-2.9c-3.9,0-7,1.5-9.4,4.5
			c-2.4,3-3.6,6.9-3.6,11.6v13.3c0,4.8,1.2,8.7,3.7,11.7c2.5,3,5.8,4.5,10,4.5c3,0,5.3-0.3,7.1-0.9c1.8-0.6,3.2-1.4,4.1-2.3V66.1
			H64.9v-8.8h23.9V81.2z"/>
	</g>
</g>
<g>
	<g>
		<path class="st1" d="M147.6,73.3c0-2.4-0.9-4.4-2.6-5.9c-1.7-1.5-4.7-2.9-9.1-4.2c-7.5-2.2-13.2-4.8-17.1-7.7
			c-3.9-3-5.8-7.1-5.8-12.3c0-5.2,2.2-9.4,6.6-12.7c4.4-3.3,10.1-4.9,16.9-4.9c7,0,12.6,1.8,17,5.5c4.4,3.7,6.5,8.2,6.3,13.7
			l-0.1,0.3h-12.3c0-2.9-1-5.3-2.9-7.1c-2-1.8-4.7-2.7-8.2-2.7c-3.4,0-6,0.8-7.9,2.3c-1.9,1.5-2.8,3.4-2.8,5.8c0,2.1,1,3.9,3,5.3
			c2,1.4,5.4,2.8,10.3,4.4c7,1.9,12.3,4.5,15.9,7.7c3.6,3.2,5.4,7.4,5.4,12.6c0,5.4-2.1,9.7-6.4,12.8s-9.9,4.7-16.9,4.7
			c-6.9,0-12.9-1.8-18-5.3c-5.1-3.5-7.6-8.5-7.5-14.9l0.1-0.3h12.3c0,3.8,1.2,6.5,3.5,8.3c2.3,1.8,5.5,2.6,9.6,2.6
			c3.4,0,6.1-0.7,7.9-2.1C146.7,77.6,147.6,75.7,147.6,73.3z"/>
	</g>
</g>
<g>
	<g>
		<path class="st1" d="M77.3,156.3c0-2.4-0.9-4.4-2.6-5.9c-1.7-1.5-4.7-2.9-9.1-4.2c-7.5-2.2-13.2-4.8-17.1-7.7
			c-3.9-3-5.8-7.1-5.8-12.3c0-5.2,2.2-9.4,6.6-12.7c4.4-3.3,10.1-4.9,16.9-4.9c7,0,12.6,1.8,17,5.5c4.4,3.7,6.5,8.2,6.3,13.7
			l-0.1,0.3H77.3c0-2.9-1-5.3-2.9-7.1c-2-1.8-4.7-2.7-8.2-2.7c-3.4,0-6,0.8-7.9,2.3c-1.9,1.5-2.8,3.4-2.8,5.8c0,2.1,1,3.9,3,5.3
			s5.4,2.8,10.3,4.4c7,1.9,12.3,4.5,15.9,7.7c3.6,3.2,5.4,7.4,5.4,12.6c0,5.4-2.1,9.7-6.4,12.8s-9.9,4.7-16.9,4.7
			c-6.9,0-12.9-1.8-18-5.3c-5.1-3.5-7.6-8.5-7.5-14.9l0.1-0.3h12.3c0,3.8,1.2,6.5,3.5,8.3c2.3,1.8,5.5,2.6,9.6,2.6
			c3.4,0,6.1-0.7,7.9-2.1C76.4,160.6,77.3,158.7,77.3,156.3z"/>
	</g>
</g>
<g>
	<g>
		<path class="st1" d="M161.3,172.8h-12.6l-25.6-43.2l-0.3,0v43.2h-12.7v-63.3h12.7l25.6,43.2l0.3,0v-43.2h12.6V172.8z"/>
	</g>
</g>
</svg>
