<?xml version="1.0" encoding="utf-8"?>
<!-- Generator: Adobe Illustrator 21.1.0, SVG Export Plug-In . SVG Version: 6.00 Build 0)  -->
<svg version="1.1" id="Layer_1" xmlns="http://www.w3.org/2000/svg" xmlns:xlink="http://www.w3.org/1999/xlink" x="0px" y="0px"
	 viewBox="0 0 356.5 243" style="enable-background:new 0 0 356.5 243;" xml:space="preserve">
<style type="text/css">
	.st0{fill:#FFFFFF;}
</style>
<g>
	<g>
		<path class="st0" d="M336.3,103.7c5.1-1.7,9.9-4.4,9.9-9c0-2.4-1.1-3.4-3.5-3.4c-2.8,0-5.8,2.2-7.5,3.9c-2.8,2.8-5.8,6.3-8.1,10.6
			C328.9,105.7,332.8,104.8,336.3,103.7 M341.3,119.2c-3.5,4.6-9,8.9-16,8.9c-5.3,0-8.4-3.8-8.4-8.6c0-15,16.5-30.8,27.6-30.8
			c3.8,0,6.5,1.4,6.5,5.4c0,5.9-5.2,9-14.3,11.8c-2.7,0.8-8.3,2-11,2.6c-1.2,2-2.9,6-2.9,9.2c0,4.3,2.2,6.8,6,6.8
			c4.5,0,8.8-3.5,11.2-6.3C340.8,117.5,341.9,118.5,341.3,119.2 M345.7,16.6c0.4,0,0.9-0.3,0.8-0.8l-1.6-11.2c-0.2-0.8-0.5-1-0.9-1
			c-0.3,0-0.6,0.2-0.8,0.7c-0.5,1-1.3,1.8-2.7,1.8c-2.5,0-4.9-1.8-10.8-1.8c-7.8,0-18.1,3.3-18.1,14.6s9,15,16.8,17.8
			c8.2,3,14.7,5.3,14.7,13.8c0,9.5-6.7,12.6-13,12.6c-7,0-15.3-3.3-18.2-14.5c-0.3-0.9-0.6-1.2-1.2-1.2s-1.1,0.4-1.1,1.4v14.3
			c0,0.8,0.5,1.3,1,1.3c0.3,0,0.8-0.2,1-0.7c0.6-0.8,1.3-1.6,2.8-1.6c3.2,0,6.9,3.8,16,3.8c8,0,21.6-2.5,21.6-18.3
			c0-6.3-2.6-14.3-17.8-18.6c-10.8-3-14.2-7.5-14.2-13c0-4.8,2.8-9.4,10.6-9.4c3.8,0,10.1,1.1,14.3,9.3
			C345.1,16.5,345.3,16.6,345.7,16.6 M299.4,13.8c-2.2,0-4.7-1.3-4.7-4.9c0-3.8,3-4.9,5.3-4.9c3.2,0,5.8,2.3,5.8,6.2
			c0,4.3-3.3,9.5-9,9.5c-0.6,0-0.8-0.4-0.8-0.8s0.3-0.7,0.6-0.8c3.9-0.8,5.4-3.3,5.5-4.9C301.7,13.6,300.5,13.8,299.4,13.8
			 M309.5,93.7c0,2.4-0.9,5.7-3,9.2c-3.9,6.4-7,7.6-9.7,7.6c-2.3,0-3.3-1.8-3.3-4.5c0-2.3,1-5.4,2.8-8.1c2.7-4.3,6.4-7.8,9.8-7.8
			C308.3,90.1,309.5,91.2,309.5,93.7 M291.2,143.4c-9.3,0-12-5.4-12-8c0-2.5,1-4.1,3.5-5.9c1.8-1.2,4.3-2.5,6.4-3.3
			c2.3,1,5.7,3,6.8,4c5,3.5,6,5.5,6,7.3C301.8,142.3,294.7,143.4,291.2,143.4 M320.3,92.2c1,0,1.9-0.5,1.9-2.3c0-1.5-1.4-2-2.8-2
			c-1.5,0-3.4,0.4-5.4,1.8c-0.5,0.4-1.8,1-2.5,0.5c-1.6-1.1-3-1.8-6.8-1.8s-9.3,2.3-12.8,7c-2.5,3.5-3,6-3,8.5s1,4.3,1.8,5.3
			c0.2,0.3,0.2,0.4,0.2,0.7c0,0.6-0.7,1-2,1.3c-2.3,0.8-6,2.9-6,6.8c0,2.5,2,4.9,4.3,6.4c0,0-4.6,1.3-8.3,3.3c-2.8,1.6-6,4-6,7.5
			c0,4,3.4,10.5,17.6,10.5c8.3,0,13.5-3,15.5-5.3c1.5-1.8,1.8-3.8,1.8-5c0-4.5-5-8.8-10.5-11.8c-3.5-2-8.7-4.4-8.7-8
			c0-0.9,0.2-1.9,1.3-2.5c0.7-0.5,1.8-0.8,2.9-0.8c1.6,0,3.6,0.5,5,0.5c4.5,0,10.6-1.5,14.4-9.5c1-2.3,1.4-4.5,1.4-6.4
			c0-2.5-0.4-3.1-0.4-4.3c0-1,1-1.6,2.9-1.6C318.7,91.1,318.7,92.2,320.3,92.2 M268.7,103.7c5.2-1.7,9.9-4.4,9.9-9
			c0-2.4-1.2-3.4-3.5-3.4c-2.9,0-5.8,2.2-7.5,3.9c-2.9,2.8-5.8,6.3-8.2,10.6C261.3,105.7,265.2,104.8,268.7,103.7 M273.7,119.2
			c-3.5,4.6-9,8.9-15.9,8.9c-5.3,0-8.4-3.8-8.4-8.6c0-15,16.5-30.8,27.6-30.8c3.8,0,6.5,1.4,6.5,5.4c0,5.9-5.1,9-14.3,11.8
			c-2.6,0.8-8.3,2-11,2.6c-1.2,2-2.8,6-2.8,9.2c0,4.3,2.1,6.8,6,6.8c4.5,0,8.8-3.5,11.1-6.3C273.2,117.5,274.4,118.5,273.7,119.2
			 M249.3,77.4c0,0.2-0.1,0.8-0.3,1.3c-6.8,14.7-13.5,29.3-20,44.1c-0.3,0.8-1,2.3-1,3.3c0,1.3,0.9,2.3,2.3,2.3
			c0.7,0,1.6-0.2,2.1-0.5c3.7-1.5,7.5-5.5,9.8-8.9c0.5-0.8-0.4-1.4-1-0.9c-0.9,0.8-3.5,4.3-6.3,5.9c-0.5,0.2-1,0.2-0.7-0.8
			l20.9-46.4c0.3-0.8,0.5-1.3,0.5-1.8c0-0.6-0.4-0.8-1-0.8c-1,0-2.2,0.3-3.7,0.4c-1.2,0.1-3.4,0.3-5.3,0.4c-0.5,0-0.8,0.5-0.8,0.8
			c0,0.5,0.4,0.7,0.9,0.7c1,0,2,0,3.1,0.3C249.2,76.9,249.3,77.1,249.3,77.4 M286,45.4c0-5.1,3.8-5.6,7-5.9c1.3-0.2,1.5-2.2-0.3-2.2
			h-25.3c-1.8,0-1.8,2.3,0,2.4c5,0.3,9,1.3,9,6.1v9.1c0,2-1,3.4-2.1,4.3c-4.4,3.7-10,3.9-13.3,3.9c-16,0-23.2-13.9-23.2-27.7
			c0-11.2,5.7-28.8,24.2-28.8c16.6,0,22.6,10.8,24.7,14.9c0.7,1.3,2.3,1,2.3,0V8.3c0-1.3-1.8-1.5-2.3,0c-0.3,1.5-1.3,2.5-2.6,2.5
			c-1,0-2.2-0.8-2.7-1.1c-5-3.2-9.8-5.7-19.3-5.7c-15.4,0-34.4,7.7-34.4,31.1c0,23.6,17.8,30.8,33.4,30.8c15.3,0,23.3-7.8,24.8-8.8
			L286,45.4L286,45.4z M230.6,77.4c0,0.2-0.1,0.8-0.3,1.3c-6.8,14.7-13.5,29.3-20,44.1c-0.3,0.8-1,2.3-1,3.3c0,1.3,0.9,2.3,2.3,2.3
			c0.7,0,1.6-0.2,2.1-0.5c3.7-1.5,7.5-5.5,9.8-8.9c0.5-0.8-0.4-1.4-1-0.9c-0.9,0.8-3.5,4.3-6.3,5.9c-0.5,0.2-1,0.2-0.7-0.8
			l20.9-46.4c0.3-0.8,0.5-1.3,0.5-1.8c0-0.6-0.4-0.8-1-0.8c-1,0-2.2,0.3-3.7,0.4c-1.3,0.1-3.4,0.3-5.4,0.4c-0.5,0-0.8,0.5-0.8,0.8
			c0,0.5,0.4,0.7,0.9,0.7c1,0,2,0,3.1,0.3C230.6,76.9,230.6,77.1,230.6,77.4 M200.9,90c-7.9,0-19.3,18.8-19.3,30.3
			c0,3,1.3,5.3,4.5,5.3c7.8,0,19.4-19.2,19.4-29.3C205.5,93.2,204.7,90,200.9,90 M199.2,87.6c8,0,9.5,7,9.5,13.5
			c0,10.4-9.5,26.9-21,26.9c-7.3,0-10-5.9-10-11.9C177.7,101.8,188,87.6,199.2,87.6 M158.9,4.3c-1.8,0-1.8,1.8-0.8,2
			c1.9,0.4,5.9,0.8,5.9,6c0.1,12.5,0.1,28.8-0.4,42c-0.1,4.8-1.5,8.8-5.6,9.3c-1.5,0.1-1.5,1.8-0.5,1.8h18.1c1,0,1.3-1.6,0.1-1.8
			c-2.8-0.5-7.3-0.5-7.6-9.3c-0.4-8.5-0.7-40.8-0.7-40.8l45.3,50.4h3.8c0,0,0-47.1,0.3-50.7c0.2-4.2,1.7-6.4,6.2-6.8
			c2.3-0.2,1.8-2.2,0.3-2.2h-18.4c-2.2,0-1.7,2-0.7,2c2,0.3,8.3,1,8.5,7c0.2,8.8,0.7,36.1,0.7,36.1L173.1,4.2
			C173.2,4.3,158.9,4.3,158.9,4.3z M175.2,92.7c0.5,0,0.8-0.3,1-0.8l4-12.8c0.2-0.8-0.1-1.3-0.8-1.3c-0.3,0-0.6,0.1-0.8,0.3
			c-0.8,0.8-1.7,1.5-2.4,1.5c-0.4,0-0.8-0.3-1.2-0.6c-3.6-4.4-9.4-5.1-12.1-5.1c-12.8,0-23.8,8.4-30.3,18.6
			c-3.9,6.1-5.9,12.8-5.9,19.4c0,10.5,7.3,16.5,16.8,16.5c4.3,0,7.5-0.5,13.3-2.9c1.3-0.5,2.7-1.1,3.5-1.1c1.4,0,1.5,2.1,1.7,4
			c0,0.8,0.5,1,1,1c0.3,0,0.8-0.2,1-0.7l5.4-15.3c0.4-1.3-0.1-1.8-0.6-1.8c-0.8,0-1.2,0.3-1.8,1.3c-2.4,3.8-4.1,6.2-12.5,10.3
			c-3.5,1.7-7.6,2.7-10.9,2.7c-7.1,0-9.9-5.4-9.9-12.3c0-9,4.3-18.5,10.8-26.3c4.2-5.2,10.5-11,18-11c7.1,0,12.4,5.3,11.6,15
			C173.9,92.2,174.5,92.7,175.2,92.7 M142.8,55.9V13.3c0-5.3,3.8-6.8,7.8-7c1.5,0,1.8-2-0.2-2h-25.1c-1.8,0-2,1.9-0.3,2
			c3.8,0.4,8.3,2.3,8.3,7v42.5c0,4.8-1.8,7.8-7.3,7.8c-2.2,0-1.7,1.8,0,1.8h24.6c1.3,0,1.6-1.8-0.5-1.8
			C144.8,63.6,142.8,60.1,142.8,55.9 M83.5,13.5c0-1.9-0.8-3.8-3.3-4.7c-2.1-0.8-4-1-6.1-1.3c-3-0.5-2.4-3.4,0.3-3.4
			c1.8,0,10.1,0.7,20.1,0.7c5.8,0,14-0.3,18.1-0.5c2.5-0.2,2.8,2.5,1,3s-10,2.5-24.8,16c-15.3,14-35,34.9-35,34.9
			s44.3,52.8,52.1,59.1c8,6.5,13.5,7,19.6,7.5c1.5,0.1,2,3,0,3H90.9c0,0-42.9-51.8-49.9-56.6c-1.2-0.8-4.3-1.8-4.5,1.8
			c-0.3,3.3-0.5,30.8,0.2,36.8c0.8,6,3.3,14.8,17.6,14.8c1.8,0,2.8,3.3,0.3,3.3c-8.4-0.4-14.8-0.4-25.2-0.4c-9,0-21.6,0.4-23.4,0.4
			c-3,0-3-2.8-0.3-3c4-0.3,13.5-0.8,14.1-16.1c0.7-15.8,0.3-82.3,0-89.6c-0.1-5-4.3-11.8-15.4-11.8c-1.8,0-1.5-3,0.5-3H52
			c1.8,0,2.8,2.9-0.2,3.2S37.3,8.2,37,23.5c-0.4,15.3-0.4,39-0.4,40c0,1.3,0.5,2.5,2.3,1.3c5.4-3.7,21.6-19.5,33.6-33
			c4.8-5.3,8-10,10.3-14.4C83,16.3,83.5,15,83.5,13.5"/>
		<path class="st0" d="M296,148.3c-1,0-1.3,1.8,0.1,1.8c1.5,0,4.7,0.4,4.7,5l-0.3,37.1c0,4-1.4,7.4-5.2,7.4c-1.2,0-1.2,1.7-0.2,1.7
			h15.5c1,0,1-1.7-0.2-1.7c-2.3,0-6.2-1-6.3-7.4l-0.3-37.8c0,0,39.6,46.6,39.9,46.8h2.7l0.3-44.6c0-4.4,1.9-6.8,6.7-6.8
			c1,0,1-1.5,0-1.5h-17.3c-1,0-1,1.5,0,1.5c1.8,0,7.1,0.3,7.2,6.1l0.4,32.5l-34-40.1L296,148.3L296,148.3z M248.2,174.4
			c0-13.5,6.3-24,17.8-24c10.3,0,18.1,9.9,18.1,24c0,17.3-7,24.9-18.1,24.9C255.2,199.3,248.2,188.9,248.2,174.4 M266,201.7
			c15.5,0,26.6-10.8,26.6-27.3c0-14.5-10.8-26.3-26.6-26.3c-15.4,0-26.4,12-26.4,26.3C239.6,189.9,250,201.7,266,201.7 M191.9,155.4
			c0-4.8,2.8-5,9.3-5c11.3,0,22.6,5.6,22.6,23.5c0,17.4-9.5,24.8-22.1,24.8H199c-3.3,0-7.1-0.7-7.1-7.3L191.9,155.4L191.9,155.4z
			 M178.8,148c-1.8,0-1.4,2-0.4,2c2,0,5.3,1,5.3,5v37.7c0,4-0.9,6.5-5.7,6.5c-1.2,0-1.2,1.9-0.1,1.9H203c11,0,29.3-5.3,29.3-27.1
			c0-22.1-15-26.1-29.6-26.1L178.8,148L178.8,148z M116.6,148.3c-1,0-1.3,1.8,0.1,1.8c1.5,0,4.7,0.4,4.7,5l-0.3,37.1
			c0,4-1.4,7.4-5.2,7.4c-1.3,0-1.3,1.7-0.3,1.7h15.5c1,0,1-1.7-0.2-1.7c-2.3,0-6.2-1-6.3-7.4l-0.3-37.8c0,0,39.6,46.6,39.9,46.8h2.7
			l0.2-44.6c0-4.4,1.9-6.8,6.7-6.8c1,0,1-1.5,0-1.5h-17.3c-1,0-1,1.5,0,1.5c1.8,0,7.1,0.3,7.2,6.1l0.4,32.5l-34-40.1L116.6,148.3
			L116.6,148.3z M68.4,174.4c0-13.5,6.3-24,17.8-24c10.3,0,18.1,9.9,18.1,24c0,17.3-7,24.9-18.1,24.9
			C75.5,199.3,68.4,188.9,68.4,174.4 M86.2,201.7c15.5,0,26.6-10.8,26.6-27.3c0-14.5-10.8-26.3-26.6-26.3c-15.4,0-26.4,12-26.4,26.3
			C59.8,189.9,70.3,201.7,86.2,201.7 M346,230.2H9.2v7.3h336.7L346,230.2L346,230.2z M346,220H9.2v3.2h336.7L346,220L346,220z
			 M8.5,148.4h21.6c1.1,0,1.4,1.8,0.1,1.8c-2.1,0-6.4,1-6.4,5.5v37.4c0,4.3,2.1,5.8,11.4,5.8c8.9,0,17.4-1.1,21.6-13
			c0.3-1,1.9-0.9,1.7,0.6l-2.8,14.8H9.2c-1.6,0-1.3-1.9-0.3-1.9c3,0,6.7-1.4,6.7-6.9v-35.9c0-4.6-2.7-6.5-7.2-6.5
			C7.3,150.1,7.2,148.4,8.5,148.4"/>
	</g>
</g>
</svg>
